# xmcd CD database file
#
# Track frame offsets:
#	150
#	65975
#	131785
#
# Disc length: 2632 seconds
#
# Revision: 0
# Processed by: cddbd v1.5.1PL0 Copyright (c) Steve Scherf et al.
# Submitted via: CDex 1.51
#
DISCID=2e0a4603
DTITLE=Gregorian - Masters of Chants
DYEAR=2000
DGENRE=New Age
TTITLE0=Tears In Heaven
TTITLE1=Losing My Religion
TTITLE2=I Still Haven't Found What I'm Looking For
EXTD=YEAR: 2000
EXTT0=
EXTT1=
EXTT2=
PLAYORDER=
